<svg width="321" height="79" viewBox="0 0 321 79" fill="none" xmlns="http://www.w3.org/2000/svg">
<path d="M320.215 55.1204C318.921 55.8255 316.565 57.2393 314.552 58.6C312.777 59.8004 310.775 60.5489 308.236 62.6715C306.245 64.3364 304.043 64.8011 301.856 65.7472C299.67 66.6933 297.31 67.8697 295.418 68.5837C292.317 69.7539 287.388 69.1737 285.262 69.5883C282.239 70.1779 275.39 70.0028 270.674 69.3562C268.669 69.0812 266.837 68.3516 264.181 67.1149C261.179 65.7171 259.395 64.8082 257.209 64.041C255.193 63.3334 249.041 63.2703 244.632 63.7398C241.654 64.0568 239.906 64.9215 237.368 66.0413C234.965 67.1009 232.82 67.9902 230.575 68.6422C228.186 69.3359 216.732 69.6485 209.669 69.0603C207.285 68.8618 204.947 68.2311 202.052 67.3488C200.049 66.7383 198.094 66.5799 195.325 65.5789C188.971 63.282 185.465 63.5113 181.915 63.2118C176.867 62.7862 168.804 63.3837 166.497 64.2129C164.63 64.8841 161.256 65.5098 154.23 68.279C151.187 69.4779 149.194 70.4706 147.127 71.4751C144.292 72.8525 142.108 73.4258 139.921 74.5455C138.012 75.5236 136.084 76.1401 131.78 77.2634C129.068 77.9712 126.871 77.7984 123.632 78.0925C116.384 78.7508 114.001 77.0968 111.868 76.0302C110.02 75.1063 106.921 73.7943 104.016 72.4283C100.885 70.9565 97.5808 69.3012 93.2188 67.7652C91.8063 67.2677 90.1609 66.7074 83.6463 66.4647C77.1316 66.222 65.7891 66.3389 59.5952 66.4576C52.6969 66.5898 46.7148 66.8137 38.5082 66.7553C34.1268 66.7241 32.2611 65.8712 30.3689 65.3981C28.4767 64.9251 26.3577 64.2199 23.4628 62.6856C21.3106 61.545 18.4488 60.2088 14.3721 58.1394C11.9269 56.8982 3.15534 56.8921 1.35352 57.0108C-1.69006 57.2113 7.54214 55.8291 11.8527 55.535C22.3025 54.822 24.6782 56.1834 27.6334 56.4775C30.9308 56.8057 40.085 54.9007 46.9434 53.7632C50.1672 53.2286 53.9611 51.825 56.5762 50.2233C58.4229 49.0923 59.9992 47.3319 61.6557 45.7958C63.8025 43.8051 65.9025 42.371 67.9152 41.657C70.1645 40.8591 73.5776 41.0671 79.3569 41.0051C82.607 40.9702 84.6827 42.0096 87.6362 42.4207C90.3592 42.7996 93.0665 44.0152 95.4335 44.8993C98.684 46.1134 101.684 47.6721 105.872 48.6217C111.299 49.8521 115.401 48.3914 116.108 47.6844C117.586 46.2057 118.941 44.4971 120.066 42.4313C121.172 40.3991 122.484 38.5937 123.962 37.1126C125.55 35.5201 128.267 34.8093 130.985 34.2158C132.385 33.91 134.759 33.8597 137.356 33.6258C139.694 33.4153 140.201 29.3879 141.503 26.2519C142.359 24.1906 144.212 22.06 146.048 20.3999C148.089 18.5543 150.357 18.1551 156.661 17.9727C158.507 18.1481 159.339 18.6193 160.105 19.2678C160.519 19.5654 160.987 19.7993 161.823 20.0403" stroke="white" stroke-width="1.5" stroke-linecap="round" stroke-linejoin="round"/>
<path d="M218.203 35.6389C217.03 37.1661 214.433 39.5296 212.893 41.2428C211.468 42.8291 208.069 44.6038 204.513 46.147C202.169 47.1644 197.332 46.9779 193.179 47.272C186.447 47.7488 183.612 45.8015 180.476 44.8554C178.193 44.1664 176.518 42.0242 173.63 39.8449C167.552 35.2583 166.83 32.1096 165.234 29.9764C164.035 28.3736 164.343 26.1991 164.049 24.3069C163.739 22.3139 163.634 17.135 164.281 13.6766C164.649 11.7099 166.341 9.89928 168.234 8.35965C170.37 6.62163 174.598 5.05894 177.386 3.80987C179.264 2.96867 182.159 2.21709 184.886 1.32946C189.487 -0.168383 197.049 1.6147 199.12 2.44565C201.389 3.3559 203.073 5.62589 205.027 7.28599C206.592 8.61532 207.566 10.4733 208.515 12.6561C209.628 15.2128 208.99 18.7295 209.284 21.5714C209.748 26.0499 208.048 28.6583 207.164 30.6125C206.302 32.5164 203.803 33.5057 201.91 34.5138C200.175 35.4382 197.665 35.2845 195.18 35.6371C191.662 36.136 186.915 35.5255 184.902 34.815C182.365 33.9193 181.118 30.5717 180.115 27.0354C179.058 23.3087 180.285 20.2887 181.05 19.463C182.453 17.9498 184.767 18.0421 187.891 17.6275C193.12 16.9334 194.576 18.6303 195.343 18.8642C195.642 19.0981 195.759 19.5658 195.936 20.0406C196.113 20.5154 196.347 20.9832 196.588 22.5281" stroke="white" stroke-width="1.5" stroke-linecap="round" stroke-linejoin="round"/>
<path d="M320.215 54.6058C319.326 54.7425 317.288 55.2935 315.242 55.8465C314.223 56.122 313.196 56.3995 309.142 56.6066C291.633 57.5013 289.319 55.9894 287.21 55.7119C284.621 55.3713 282.422 54.059 280.376 52.8847C278.152 51.6076 276.545 49.6432 274.375 47.0915C272.166 44.4949 271.817 41.4992 270.539 37.8435C269.572 35.0759 268.499 32.5267 267.219 30.1738C265.842 27.6407 261.626 23.5708 258.538 21.0563C256.612 19.488 254.201 18.0199 251.706 16.9822C249.664 16.1325 247.304 15.8079 245.065 15.2548C242.24 14.5573 239.128 14.5651 227.86 14.4926C223.9 14.4672 221.887 15.5262 219.778 16.5597C217.338 17.7551 215.757 19.5278 214.029 20.9776C213.58 21.3256 213.075 21.599 212.625 21.9449C212.174 22.2908 211.795 22.7009 210.255 23.9519" stroke="white" stroke-width="1.5" stroke-linecap="round" stroke-linejoin="round"/>
<path d="M140.168 33.8711C141.107 33.8711 143.229 34.3388 145.121 35.3434C147.241 36.4686 148.899 38.4705 150.38 40.2422C151.76 41.8936 151.386 44.3739 151.801 47.3787C152.273 50.8052 151.627 53.4734 151.097 54.416C149.922 56.5079 147.503 57.9594 145.02 59.4371C143.503 60.34 140.777 60.8013 137.708 60.7428C136.034 60.7109 134.626 59.5115 133.091 57.8018C131.101 55.5839 131.784 52.1907 131.839 49.0016C131.851 48.2648 132.365 47.8181 133.247 47.5771C137.446 47.687 138.864 48.6331 139.631 49.2213C139.93 49.5756 140.047 50.0434 141.231 50.8796" stroke="white" stroke-width="1.5" stroke-linecap="round" stroke-linejoin="round"/>
</svg>
