<svg width="321" height="79" viewBox="0 0 321 79" fill="none" xmlns="http://www.w3.org/2000/svg">
<path d="M0.75 55.1204C2.04336 55.8255 4.39974 57.2393 6.41242 58.6C8.18788 59.8004 10.1897 60.5489 12.7286 62.6715C14.7202 64.3364 16.9222 64.8011 19.1085 65.7472C21.2948 66.6933 23.6548 67.8697 25.547 68.5837C28.6481 69.7539 33.5764 69.1737 35.7025 69.5883C38.7263 70.1779 45.5745 70.0028 50.2908 69.3562C52.296 69.0812 54.1283 68.3516 56.7841 67.1149C59.7861 65.7171 61.5695 64.8082 63.7558 64.041C65.7723 63.3334 71.9234 63.2703 76.3332 63.7398C79.3105 64.0568 81.0584 64.9215 83.5973 66.0413C86 67.1009 88.1453 67.9902 90.39 68.6422C92.7784 69.3359 104.232 69.6485 111.296 69.0603C113.68 68.8618 116.018 68.2311 118.913 67.3488C120.916 66.7383 122.871 66.5799 125.64 65.5789C131.994 63.282 135.5 63.5113 139.05 63.2118C144.097 62.7862 152.161 63.3837 154.468 64.2129C156.335 64.8841 159.708 65.5098 166.735 68.279C169.777 69.4779 171.77 70.4706 173.838 71.4751C176.673 72.8525 178.857 73.4258 181.044 74.5455C182.953 75.5236 184.881 76.1401 189.185 77.2634C191.896 77.9712 194.094 77.7984 197.333 78.0925C204.581 78.7508 206.964 77.0968 209.097 76.0302C210.945 75.1063 214.044 73.7943 216.949 72.4283C220.08 70.9565 223.384 69.3012 227.746 67.7652C229.159 67.2677 230.804 66.7074 237.319 66.4647C243.833 66.222 255.176 66.3389 261.37 66.4576C268.268 66.5898 274.25 66.8137 282.457 66.7553C286.838 66.7241 288.704 65.8712 290.596 65.3981C292.488 64.9251 294.607 64.2199 297.502 62.6856C299.654 61.545 302.516 60.2088 306.593 58.1394C309.038 56.8982 317.81 56.8921 319.611 57.0108C322.655 57.2113 313.423 55.8291 309.112 55.535C298.662 54.822 296.287 56.1834 293.331 56.4775C290.034 56.8057 280.88 54.9007 274.021 53.7632C270.798 53.2286 267.004 51.825 264.389 50.2233C262.542 49.0923 260.966 47.3319 259.309 45.7958C257.162 43.8051 255.062 42.371 253.05 41.657C250.8 40.8591 247.387 41.0671 241.608 41.0051C238.358 40.9702 236.282 42.0096 233.329 42.4207C230.606 42.7996 227.898 44.0152 225.531 44.8993C222.281 46.1134 219.281 47.6721 215.092 48.6217C209.666 49.8521 205.564 48.3914 204.857 47.6844C203.378 46.2057 202.024 44.4971 200.899 42.4313C199.792 40.3991 198.481 38.5937 197.003 37.1126C195.414 35.5201 192.698 34.8093 189.98 34.2158C188.58 33.91 186.206 33.8597 183.609 33.6258C181.271 33.4153 180.764 29.3879 179.461 26.2519C178.605 24.1906 176.752 22.06 174.917 20.3999C172.876 18.5543 170.608 18.1551 164.304 17.9727C162.458 18.1481 161.626 18.6193 160.86 19.2678C160.446 19.5654 159.978 19.7993 159.142 20.0403" stroke="white" stroke-width="1.5" stroke-linecap="round" stroke-linejoin="round"/>
<path d="M102.762 35.6389C103.935 37.1661 106.532 39.5296 108.072 41.2428C109.497 42.8291 112.896 44.6038 116.452 46.147C118.796 47.1644 123.633 46.9779 127.785 47.272C134.518 47.7488 137.353 45.8015 140.489 44.8554C142.772 44.1664 144.447 42.0242 147.335 39.8449C153.413 35.2583 154.134 32.1096 155.731 29.9764C156.93 28.3736 156.622 26.1991 156.916 24.3069C157.226 22.3139 157.331 17.135 156.684 13.6766C156.316 11.7099 154.623 9.89928 152.731 8.35965C150.595 6.62163 146.367 5.05894 143.579 3.80987C141.7 2.96867 138.806 2.21709 136.079 1.32946C131.478 -0.168383 123.916 1.6147 121.845 2.44565C119.576 3.3559 117.892 5.62589 115.938 7.28599C114.373 8.61532 113.399 10.4733 112.449 12.6561C111.337 15.2128 111.975 18.7295 111.681 21.5714C111.217 26.0499 112.917 28.6583 113.801 30.6125C114.663 32.5164 117.162 33.5057 119.054 34.5138C120.789 35.4382 123.299 35.2845 125.785 35.6371C129.302 36.136 134.05 35.5255 136.063 34.815C138.6 33.9193 139.847 30.5717 140.85 27.0354C141.907 23.3087 140.68 20.2887 139.915 19.463C138.512 17.9498 136.198 18.0421 133.074 17.6275C127.845 16.9334 126.389 18.6303 125.622 18.8642C125.323 19.0981 125.206 19.5658 125.029 20.0406C124.851 20.5154 124.618 20.9832 124.377 22.5281" stroke="white" stroke-width="1.5" stroke-linecap="round" stroke-linejoin="round"/>
<path d="M0.75 54.6063C1.63888 54.743 3.67716 55.294 5.72311 55.847C6.74225 56.1224 7.76905 56.4 11.8226 56.6071C29.3317 57.5018 31.6461 55.9899 33.7552 55.7123C36.3436 55.3718 38.5425 54.0595 40.5885 52.8851C42.8133 51.6081 44.4198 49.6437 46.5903 47.092C48.7989 44.4954 49.1477 41.4997 50.4255 37.844C51.3928 35.0764 52.4657 32.5272 53.7454 30.1743C55.123 27.6412 59.3391 23.5713 62.4272 21.0568C64.3533 19.4885 66.7643 18.0204 69.2585 16.9827C71.3009 16.133 73.6608 15.8083 75.9002 15.2553C78.7248 14.5578 81.8369 14.5656 93.1049 14.4931C97.0649 14.4676 99.078 15.5267 101.187 16.5602C103.627 17.7556 105.208 19.5282 106.936 20.9781C107.384 21.3261 107.89 21.5995 108.34 21.9454C108.79 22.2912 109.17 22.7014 110.71 23.9524" stroke="white" stroke-width="1.5" stroke-linecap="round" stroke-linejoin="round"/>
<path d="M180.799 33.8711C179.86 33.8711 177.738 34.3388 175.845 35.3434C173.726 36.4686 172.068 38.4705 170.587 40.2422C169.206 41.8936 169.581 44.3739 169.166 47.3787C168.693 50.8052 169.34 53.4734 169.869 54.416C171.045 56.5079 173.464 57.9594 175.946 59.4371C177.463 60.34 180.19 60.8013 183.258 60.7428C184.933 60.7109 186.341 59.5115 187.875 57.8018C189.866 55.5839 189.183 52.1907 189.128 49.0016C189.115 48.2648 188.602 47.8181 187.72 47.5771C183.521 47.687 182.103 48.6331 181.336 49.2213C181.037 49.5756 180.92 50.0434 179.736 50.8796" stroke="white" stroke-width="1.5" stroke-linecap="round" stroke-linejoin="round"/>
</svg>
